<svg xmlns="http://www.w3.org/2000/svg" width="1600" height="1100" viewBox="0 0 1600 1100" role="img" aria-labelledby="title desc"><title id="title">Bundle network</title><desc id="desc">Home broadband, mobile, TV, and device bundle represented as connected cards.</desc><defs><linearGradient id="bg" x1="0" x2="1" y1="0" y2="1"><stop offset="0" stop-color="#fff8df"/><stop offset="1" stop-color="#dcd8ca"/></linearGradient><linearGradient id="gold" x1="0" x2="1"><stop offset="0" stop-color="#ffe77a"/><stop offset="1" stop-color="#bf9600"/></linearGradient><filter id="shadow"><feDropShadow dx="0" dy="28" stdDeviation="34" flood-color="#111" flood-opacity="0.24"/></filter></defs><rect width="1600" height="1100" fill="url(#bg)"/><path d="M0 795 C340 660 610 710 840 790 C1080 870 1320 840 1600 690 V1100 H0Z" fill="#171a22" opacity="0.94"/><g fill="none" stroke="#caa000" stroke-width="6" opacity="0.35"><path d="M800 540 L430 430 L335 670 L800 540 L1160 420 L1280 675 L800 540"/><circle cx="800" cy="540" r="250"/><circle cx="800" cy="540" r="430"/></g><g filter="url(#shadow)"><rect x="620" y="345" width="360" height="270" rx="42" fill="#20232b"/><rect x="665" y="390" width="270" height="150" rx="24" fill="#fffdf5"/><rect x="705" y="565" width="190" height="28" rx="14" fill="url(#gold)"/></g><g filter="url(#shadow)"><rect x="245" y="320" width="285" height="205" rx="36" fill="#fff"/><text x="292" y="400" font-family="Arial" font-size="30" font-weight="700" fill="#202229">Fiber</text><text x="292" y="445" font-family="Arial" font-size="22" fill="#555">Home broadband</text></g><g filter="url(#shadow)"><rect x="1080" y="310" width="285" height="205" rx="36" fill="#fff"/><text x="1128" y="390" font-family="Arial" font-size="30" font-weight="700" fill="#202229">Mobile</text><text x="1128" y="435" font-family="Arial" font-size="22" fill="#555">Lines and roaming</text></g><g filter="url(#shadow)"><rect x="230" y="650" width="285" height="205" rx="36" fill="#fff"/><text x="278" y="730" font-family="Arial" font-size="30" font-weight="700" fill="#202229">TV</text><text x="278" y="775" font-family="Arial" font-size="22" fill="#555">Streaming bundle</text></g><g filter="url(#shadow)"><rect x="1095" y="650" width="285" height="205" rx="36" fill="#fff"/><text x="1143" y="730" font-family="Arial" font-size="30" font-weight="700" fill="#202229">Device</text><text x="1143" y="775" font-family="Arial" font-size="22" fill="#555">Upgrade ready</text></g><circle cx="800" cy="540" r="42" fill="url(#gold)"/><text x="90" y="145" font-family="Arial, sans-serif" font-size="34" font-weight="700" letter-spacing="8" fill="#202229">BUNDLE NETWORK</text><text x="90" y="192" font-family="Arial, sans-serif" font-size="24" fill="#454744">Fiber, mobile, TV, and device benefits connected.</text></svg>
